<?xml version="1.0" encoding="UTF-8"?>
<!DOCTYPE svg PUBLIC "-//W3C//DTD SVG 1.1//EN" "http://www.w3.org/Graphics/SVG/1.1/DTD/svg11.dtd">
<!-- Creator: CorelDRAW 2020 (64-Bit) -->
<svg xmlns="http://www.w3.org/2000/svg" xml:space="preserve" width="230mm" height="147mm" version="1.1" style="shape-rendering:geometricPrecision; text-rendering:geometricPrecision; image-rendering:optimizeQuality; fill-rule:evenodd; clip-rule:evenodd"
viewBox="0 0 23000 14700"
 xmlns:xlink="http://www.w3.org/1999/xlink"
 xmlns:xodm="http://www.corel.com/coreldraw/odm/2003">
 <defs>
  <style type="text/css">
   <![CDATA[
    .fil4 {fill:#AF7F64;fill-rule:nonzero}
    .fil3 {fill:#AF7F63;fill-rule:nonzero}
    .fil1 {fill:#AD7E61;fill-rule:nonzero}
    .fil2 {fill:#5C493F;fill-rule:nonzero}
    .fil0 {fill:#5B493F;fill-rule:nonzero}
   ]]>
  </style>
 </defs>
 <g id="Слой_x0020_1">
  <metadata id="CorelCorpID_0Corel-Layer"/>
  <path class="fil0" d="M19801.09 9873.71c-17.93,17.93 -89.65,143.44 -251.03,358.61l2115.81 1237.21c71.72,35.86 125.51,53.79 179.3,53.79 53.79,0 107.59,-17.93 161.38,-71.72 53.79,-53.79 71.72,-107.59 71.72,-161.38 0,-89.65 -53.79,-143.44 -143.44,-197.23l-2133.74 -1219.28z"/>
  <path class="fil0" d="M16978.05 11275.81c-1022.04,0 -1795.99,-312.16 -2423.56,-957.66 -627.57,-645.5 -974.13,-1469.14 -974.13,-2544.97 0,-806.87 158.77,-1535.57 459.42,-2172.54 -906.43,1447.08 -1083.75,3746.35 219.29,5013.2 627.57,645.5 1461.78,1005.29 2519.68,1005.29 591.71,0 1121.7,-77.88 1605.82,-310.98 484.13,-233.1 842.74,-555.85 1111.7,-986.18 -268.96,322.75 -627.57,573.78 -1057.9,735.15 -448.27,179.31 -940.33,218.69 -1460.32,218.69z"/>
  <path class="fil0" d="M16770.82 1912.54c1004.11,0 1936.5,215.16 2815.1,663.43 860.67,448.26 1542.03,1039.97 2062.02,1793.05 89.65,53.8 161.37,89.66 215.16,89.66 53.79,0 107.59,-17.93 161.38,-53.8 35.86,-35.86 53.79,-71.72 53.79,-125.51 0,-53.79 -17.93,-107.58 -53.79,-179.31 -537.92,-806.87 -1255.14,-1434.44 -2133.74,-1882.7 -896.53,-448.27 -1864.78,-681.37 -2904.75,-681.37 -1057.9,0 -2044.09,233.1 -2940.61,699.3 -896.53,466.19 -1613.75,1111.69 -2169.6,1954.43 555.85,-717.22 1255.14,-1273.07 2115.81,-1685.48 842.73,-394.47 1775.12,-591.7 2779.23,-591.7z"/>
  <path class="fil0" d="M3412.55 13923.84l0.16 -3379.21c0,-95.3 -55.78,-168.99 -143.38,-169.02 -103.1,0.03 -143.58,81.55 -143.58,166.06l0 3384.47c-0.01,133.95 76.84,166.81 143.45,166.81 66.62,0.05 143.35,-46.56 143.35,-169.11z"/>
  <path class="fil0" d="M9867.55 14087.39c53.79,0 107.58,-17.93 161.38,-71.72 35.86,-35.86 53.79,-89.66 53.79,-143.45 0,-35.86 -17.93,-71.72 -35.86,-89.65l-2277.18 -3926.79c-35.87,-71.73 -89.66,-107.59 -161.38,-107.59 -161.38,0 -233.1,71.73 -233.1,233.1 0,53.79 0,89.65 17.93,107.58l2277.19 3908.87c35.86,53.79 107.58,89.65 197.23,89.65z"/>
  <path class="fil0" d="M5313.19 7847.55c251.03,0 484.12,-71.72 717.22,-215.16 215.17,-125.52 376.54,-322.75 502.06,-573.78 -268.96,268.96 -591.71,412.4 -950.32,412.4l-1900.64 0c-89.66,0 -143.45,-17.93 -197.24,-71.72 -53.79,-53.79 -71.72,-107.58 -71.72,-179.31l0.24 -2430.5c0,-88.18 -46.22,-170.34 -144.38,-170.4 -102.04,-0.61 -142.51,75.92 -142.51,170.4l0 1469.99 0 1181.69c0,237.2 143.93,406.39 390.43,406.39l1796.86 0z"/>
  <path class="fil0" d="M8953.09 8403.4c627.57,-771.01 932.39,-1631.68 932.39,-2564.07 0,-771.01 -197.23,-1488.24 -573.78,-2151.67 -394.47,-663.43 -914.46,-1183.42 -1577.89,-1577.89 -663.43,-376.54 -1380.65,-573.78 -2151.66,-573.78l-4795.4 0c-103.1,0 -206.2,103.11 -206.2,206.2 0,103.11 103.1,206.2 206.2,206.2l4526.44 0.01c753.08,0 1470.3,197.23 2133.73,573.78 663.44,376.54 1183.42,896.52 1559.96,1559.95 376.55,663.44 573.78,1398.59 573.78,2169.6 0,771.02 -215.16,1488.24 -627.57,2151.67z"/>
  <path class="fil1" d="M9731.5 7395.78c627.57,-771.01 842.43,-1684.59 842.43,-2616.98 0,-771.01 -197.23,-1488.24 -573.78,-2151.67 -394.47,-663.43 -914.46,-1183.42 -1577.89,-1577.89 -663.43,-376.54 -1380.65,-573.78 -2151.66,-573.78l-4796.28 -2.38c-103.1,0 -206.2,103.11 -206.2,206.2 0,103.11 103.1,206.2 206.2,206.2l4527.32 2.39c753.08,0 1470.3,197.23 2133.73,573.78 663.44,376.54 1183.42,896.52 1559.96,1559.95 376.55,663.44 573.78,1398.59 573.78,2169.6 0,771.02 -125.2,1541.15 -537.61,2204.58zm-3729.86 -608.76c251.03,0 384.75,-14.94 617.85,-158.38 215.17,-125.52 359.49,-368.95 485.01,-619.98 -268.96,268.96 -475.29,401.82 -833.9,401.82l-1829.11 -1.74c-166.3,0 -337.72,2.27 -337.72,-243.96l0 -2436.24c0,-84.51 -40.36,-169.02 -143.47,-169.02 -103.11,0 -143.42,84.51 -143.42,169.02l-2.77 2746.02c6.85,238.7 125.52,309.81 332.46,312.46l1855.07 0zm4554.36 6239.84c53.79,0 107.58,-17.93 161.38,-71.72 35.86,-35.86 53.79,-89.66 53.79,-143.45 0,-35.86 -17.93,-71.72 -35.86,-89.65l-2277.18 -3926.79c-35.87,-71.73 -89.66,-107.59 -161.38,-107.59 -161.38,0 -233.1,71.73 -233.1,233.1 0,53.79 0,89.65 17.93,107.58l2277.19 3908.87c35.86,53.79 107.58,89.65 197.23,89.65zm-6595.66 -0.31c103.11,0 140.66,-62.06 140.66,-169.72l0 -3374.04c0,-84.51 -37.59,-169.02 -140.7,-169.02 -103.11,0 -146.19,84.51 -146.19,169.02l0.18 3374.7c0,107.63 42.94,169.06 146.05,169.06zm13498.93 -12174.54c1004.11,0 1936.5,215.16 2815.1,663.43 860.67,448.26 1542.03,1039.97 2062.02,1793.05 89.65,53.8 161.37,89.66 215.16,89.66 53.79,0 107.59,-17.93 161.38,-53.8 35.86,-35.86 53.79,-71.72 53.79,-125.51 0,-53.79 -17.93,-107.58 -53.79,-179.31 -537.92,-806.87 -1255.14,-1434.44 -2133.74,-1882.7 -896.53,-448.27 -1864.78,-681.37 -2904.75,-681.37 -1057.9,0 -2044.09,233.1 -2940.61,699.3 -896.53,466.19 -1629.62,1111.69 -2211.93,1917.39 598.19,-696.06 1297.47,-1236.03 2158.14,-1648.44 842.73,-394.47 1775.12,-591.7 2779.23,-591.7zm215.17 9413.54c-1022.04,0 -1864.78,-322.75 -2492.35,-968.25 -627.57,-645.5 -950.32,-1506.17 -950.32,-2582 0,-806.87 197.24,-1488.24 591.71,-2079.94 -591.71,627.57 -878.6,1452.37 -878.6,2456.48 0,1057.91 322.75,1918.57 968.25,2546.14 627.57,645.5 1488.24,968.25 2546.14,968.25 591.71,0 1129.63,-125.51 1613.75,-358.61 484.13,-233.1 842.74,-555.85 1111.7,-986.18 -268.96,322.75 -627.57,573.78 -1057.9,735.15 -448.27,179.31 -932.39,268.96 -1452.38,268.96zm2815.1 -1452.37c-17.93,17.93 -89.65,143.44 -251.03,358.61l2115.81 1237.21c71.72,35.86 125.51,53.79 179.3,53.79 53.79,0 107.59,-17.93 161.38,-71.72 53.79,-53.79 71.72,-107.59 71.72,-161.38 0,-89.65 -53.79,-143.44 -143.44,-197.23l-2133.74 -1219.28z"/>
  <path class="fil2" d="M655.26 3013.8l0 -368.63 271.68 0 226.69 368.63 97.16 0 -233.88 -377.66c59.36,-4.52 104.34,-16.27 134.93,-33.43 30.59,-17.17 50.38,-37.95 62.97,-62.35 10.79,-24.39 16.18,-50.59 16.18,-77.7 0,-33.43 -8.98,-64.15 -25.19,-92.15 -17.98,-27.11 -50.36,-48.79 -95.34,-65.06 -46.78,-15.36 -113.35,-23.49 -199.71,-23.49l-352.64 0 0 731.84 97.15 0zm0 -692.99l250.09 0c91.76,0 154.73,11.75 185.32,36.14 30.58,24.4 44.98,59.63 44.98,105.71 0,29.82 -5.4,55.12 -18,76.8 -12.59,21.69 -35.98,37.95 -68.36,49.69 -32.38,11.75 -79.18,18.07 -142.14,18.07l-251.89 0 0 -286.41z"/>
  <path class="fil2" d="M1041.18 3902.85c37.79,-15.36 62.99,-37.04 79.17,-66.86 14.4,-29.81 21.59,-65.95 21.59,-109.32l0 -140.95c0,-44.27 -7.19,-80.41 -21.59,-110.22 -16.18,-28.91 -41.38,-50.6 -79.17,-65.96 -37.78,-15.36 -91.74,-22.59 -161.91,-22.59 -68.37,0 -120.56,7.23 -158.33,22.59 -37.78,15.36 -64.78,37.05 -79.16,66.86 -16.19,29.82 -23.4,65.96 -23.4,109.32l0 140.95c0,43.37 7.21,79.51 23.4,109.32 14.38,29.82 41.38,51.5 79.16,66.86 37.77,15.36 89.96,22.59 158.33,22.59 70.17,0 124.13,-7.23 161.91,-22.59zm-271.66 -33.43c-23.39,-12.64 -39.58,-30.71 -44.98,-55.11 -7.21,-24.39 -10.79,-52.4 -10.79,-85.83l0 -144.56c0,-33.43 3.58,-62.34 10.79,-86.74 5.4,-23.49 21.59,-41.56 44.98,-55.11 23.38,-12.65 59.36,-18.98 109.75,-18.98 50.38,0 88.15,6.33 111.55,18.98 23.38,13.55 39.57,31.62 46.78,55.11 5.39,24.4 8.98,53.31 8.98,86.74l0 144.56c0,33.43 -3.59,61.44 -8.98,85.83 -7.21,24.4 -23.4,42.47 -46.78,55.11 -23.4,13.56 -61.17,19.88 -111.55,19.88 -50.39,0 -86.37,-6.32 -109.75,-19.88z"/>
  <path class="fil2" d="M648.97 4950.9c55.78,0 102.56,-3.61 140.33,-9.93 37.78,-6.33 66.57,-15.36 89.97,-28.92 21.59,-12.65 35.98,-28.91 44.96,-48.79l253.7 -564.68 -95.37 0 -197.89 477.04 -205.11 -477.04 -93.57 0 219.5 468.91c7.21,14.46 14.4,28.92 19.79,42.47 5.4,13.55 9.01,27.1 9.01,38.85 0,11.74 -3.61,21.68 -12.61,31.62 -8.98,9.94 -30.59,17.17 -61.17,22.59 -32.38,6.32 -82.76,9.03 -151.12,9.03l0 38.85 39.58 0z"/>
  <path class="fil2" d="M953.04 5709.85c37.77,-15.36 64.75,-33.43 80.94,-55.11 1.82,6.32 3.61,16.26 7.21,29.82 3.59,13.55 7.19,27.1 8.98,39.75l82.78 0c-1.81,-3.61 -1.81,-11.75 -1.81,-24.39 -1.79,-12.65 -1.79,-26.21 -1.79,-39.76 -1.79,-13.55 -1.79,-22.59 -1.79,-27.1l0 -262.92c0,-62.34 -18.01,-106.62 -52.2,-134.62 -34.17,-28.01 -95.34,-41.57 -183.5,-41.57 -95.36,0 -161.93,11.75 -201.52,36.14 -41.38,24.4 -61.15,62.35 -61.15,112.04l93.55 0 0 -13.55c0,-28.01 8.98,-48.79 25.19,-63.25 16.19,-13.55 35.98,-23.49 61.17,-28.01 25.17,-4.52 52.18,-7.23 79.16,-7.23 35.98,0 64.78,4.52 86.36,12.65 19.8,8.13 35.98,23.49 44.99,44.27 8.98,20.79 12.58,50.6 12.58,88.55l0 37.04c-88.15,20.78 -160.12,39.76 -215.9,55.12 -55.77,16.26 -98.95,31.62 -129.53,46.07 -30.59,14.46 -50.38,29.82 -61.18,46.08 -12.6,17.17 -18,36.14 -18,58.73 0,22.59 9,41.56 27,58.73 16.19,17.16 41.38,30.72 71.97,40.66 30.59,9.93 68.36,14.45 109.74,14.45 52.17,0 98.95,-7.23 136.75,-22.59zm-206.92 -34.33c-28.78,-11.74 -43.17,-32.53 -43.17,-64.15 0,-18.97 5.39,-36.14 16.19,-49.69 10.79,-13.55 28.79,-25.3 53.98,-36.14 23.38,-10.84 57.57,-22.59 100.74,-34.33 41.38,-11.75 95.37,-26.21 158.33,-43.37l0 171.66c-12.58,12.65 -26.98,24.4 -46.78,35.24 -19.79,11.75 -41.37,20.78 -64.77,27.11 -23.38,7.22 -50.38,10.84 -80.97,10.84 -34.17,0 -64.76,-5.42 -93.55,-17.17z"/>
  <polygon class="fil2" points="928.73,6627.82 928.73,5895.98 833.37,5895.98 833.37,6627.82 "/>
  <path class="fil2" d="M1102.34 8537.8c48.57,-18.07 80.97,-43.37 100.77,-75.89 19.77,-32.53 28.77,-69.57 28.77,-111.14l0 -36.14 -93.55 0 0 44.28c0,33.43 -5.4,62.34 -18,86.73 -12.59,25.3 -37.78,45.18 -71.97,58.73 -34.17,13.55 -84.55,20.78 -149.33,20.78 -66.57,0 -118.74,-7.23 -156.52,-20.78 -37.79,-13.55 -62.96,-33.43 -77.36,-59.63 -14.4,-25.3 -21.59,-56.02 -21.59,-92.16l0 -323.45c0,-34.34 7.19,-64.15 19.78,-90.35 12.6,-26.2 37.79,-46.08 75.57,-60.54 37.79,-14.45 89.97,-21.68 160.12,-21.68 62.99,0 113.35,6.32 147.54,19.88 34.19,13.55 59.38,31.62 71.96,56.01 12.61,24.4 19.8,54.21 19.8,89.45l0 37.04 93.55 0 0 -37.04c0,-41.56 -10.79,-77.7 -30.59,-109.32 -19.79,-30.72 -53.96,-54.21 -102.55,-71.38 -48.57,-17.17 -115.14,-25.3 -199.71,-25.3 -91.76,0 -163.73,9.04 -215.9,28.01 -52.17,18.97 -88.15,45.18 -107.95,77.7 -19.79,33.43 -30.58,70.47 -30.58,112.94l0 310.8c0,40.66 9,76.8 28.79,110.23 19.79,33.43 53.96,60.54 106.16,80.41 50.36,19.88 124.14,29.82 219.48,29.82 88.16,0 154.73,-9.04 203.31,-28.01z"/>
  <path class="fil2" d="M1041.18 9444.88c37.79,-15.36 62.98,-37.04 79.17,-66.86 14.4,-29.81 21.59,-65.95 21.59,-109.32l0 -140.95c0,-44.27 -7.19,-80.41 -21.59,-110.22 -16.19,-28.91 -41.38,-50.6 -79.17,-65.96 -37.78,-15.36 -91.74,-22.59 -161.92,-22.59 -68.36,0 -120.55,7.23 -158.33,22.59 -37.77,15.36 -64.77,37.05 -79.15,66.86 -16.19,29.82 -23.4,65.96 -23.4,109.32l0 140.95c0,43.37 7.21,79.51 23.4,109.32 14.38,29.82 41.38,51.5 79.15,66.86 37.78,15.36 89.97,22.59 158.33,22.59 70.18,0 124.14,-7.23 161.92,-22.59zm-271.66 -33.43c-23.4,-12.64 -39.58,-30.71 -44.98,-55.11 -7.21,-24.39 -10.79,-52.4 -10.79,-85.83l0 -144.56c0,-33.43 3.58,-62.34 10.79,-86.74 5.4,-23.49 21.58,-41.56 44.98,-55.11 23.38,-12.65 59.36,-18.98 109.74,-18.98 50.38,0 88.16,6.33 111.56,18.98 23.38,13.55 39.57,31.62 46.77,55.11 5.4,24.4 8.99,53.31 8.99,86.74l0 144.56c0,33.43 -3.59,61.44 -8.99,85.83 -7.2,24.4 -23.39,42.47 -46.77,55.11 -23.4,13.56 -61.18,19.88 -111.56,19.88 -50.38,0 -86.36,-6.32 -109.74,-19.88z"/>
  <path class="fil2" d="M512.23 10362.85l0 -436.39c32.4,-18.07 66.57,-32.53 104.37,-44.27 37.77,-10.85 73.76,-16.27 109.74,-16.27 30.59,0 57.57,5.42 79.17,16.27 21.59,10.84 32.38,33.43 32.38,66.86l0 413.8 91.76 0 0 -412.9c0,-4.52 0,-8.13 0,-12.65 -1.81,-3.61 -1.81,-7.23 -3.6,-9.94 32.38,-18.97 66.57,-33.43 104.34,-45.17 37.8,-10.85 73.78,-16.27 111.56,-16.27 30.58,0 57.57,5.42 79.15,16.27 21.61,10.84 32.4,33.43 32.4,66.86l0 413.8 91.76 0 0 -412.9c0,-31.62 -9,-56.02 -25.19,-73.18 -16.19,-17.17 -37.79,-28.92 -64.78,-35.24 -26.98,-6.33 -53.96,-9.94 -82.76,-9.94 -48.56,0 -93.55,6.32 -136.74,18.07 -43.17,11.75 -82.76,28.91 -116.93,51.5 -12.61,-27.1 -32.4,-45.18 -62.99,-55.11 -30.58,-9.94 -64.75,-14.46 -98.94,-14.46 -44.99,0 -89.95,5.42 -131.33,16.26 -41.4,11.75 -79.18,27.11 -113.37,47.89l0 -55.11 -89.95 0 0 522.22 89.95 0z"/>
  <path class="fil2" d="M718.25 11438.03l0 -215.04c19.77,11.75 44.96,22.59 77.36,34.33 30.59,11.75 68.36,17.17 113.35,17.17 62.96,0 111.53,-8.13 147.51,-25.3 34.19,-17.16 59.38,-41.56 75.57,-74.99 14.4,-33.43 21.59,-74.08 21.59,-122.87l0 -100.29c0,-32.53 -3.58,-62.34 -8.98,-88.55 -7.21,-26.2 -19.79,-49.69 -35.98,-68.66 -18.01,-18.98 -41.4,-33.43 -71.97,-43.37 -30.59,-9.94 -70.17,-14.46 -118.76,-14.46 -48.57,0 -88.16,5.42 -120.54,16.27 -32.38,11.74 -59.38,23.49 -79.15,36.14l0 -44.27 -95.37 0 0 693.89 95.37 0zm77.36 -215.04c-30.59,-9.94 -57.59,-20.78 -77.36,-32.52l0 -368.63c19.77,-9.94 44.96,-20.78 75.55,-32.53 30.58,-10.84 66.57,-16.26 104.36,-16.26 44.97,0 79.16,6.32 102.56,18.07 23.37,12.65 37.77,31.62 46.77,57.82 7.19,26.2 10.8,60.54 10.8,102.1l0 102.09c0,42.47 -3.61,76.8 -12.61,103.91 -8.98,28 -23.38,47.88 -46.78,60.53 -23.37,13.55 -57.56,19.88 -100.74,19.88 -37.79,0 -71.96,-4.52 -102.55,-14.46z"/>
  <path class="fil2" d="M953.03 12155.41c37.78,-15.36 64.76,-33.43 80.95,-55.11 1.81,6.32 3.61,16.26 7.21,29.82 3.58,13.55 7.19,27.1 8.98,39.75l82.78 0c-1.81,-3.61 -1.81,-11.75 -1.81,-24.39 -1.79,-12.65 -1.79,-26.21 -1.79,-39.76 -1.8,-13.55 -1.8,-22.59 -1.8,-27.1l0 -262.92c0,-62.34 -18,-106.62 -52.19,-134.62 -34.17,-28.01 -95.34,-41.57 -183.5,-41.57 -95.36,0 -161.93,11.75 -201.52,36.14 -41.38,24.4 -61.15,62.35 -61.15,112.04l93.55 0 0 -13.55c0,-28.01 8.98,-48.79 25.19,-63.25 16.19,-13.55 35.98,-23.49 61.17,-28.01 25.17,-4.52 52.17,-7.23 79.16,-7.23 35.98,0 64.77,4.52 86.36,12.65 19.79,8.13 35.98,23.49 44.98,44.27 8.98,20.79 12.59,50.6 12.59,88.55l0 37.04c-88.16,20.78 -160.12,39.76 -215.9,55.12 -55.78,16.26 -98.95,31.62 -129.54,46.07 -30.58,14.46 -50.38,29.82 -61.17,46.08 -12.6,17.17 -18,36.14 -18,58.73 0,22.59 9,41.56 27,58.73 16.19,17.16 41.38,30.72 71.97,40.66 30.59,9.93 68.36,14.45 109.74,14.45 52.17,0 98.95,-7.23 136.74,-22.59zm-206.91 -34.33c-28.78,-11.74 -43.18,-32.53 -43.18,-64.15 0,-18.97 5.4,-36.14 16.19,-49.69 10.8,-13.55 28.8,-25.3 53.99,-36.14 23.38,-10.84 57.57,-22.59 100.74,-34.33 41.38,-11.75 95.36,-26.21 158.33,-43.37l0 171.66c-12.59,12.65 -26.98,24.4 -46.78,35.24 -19.79,11.75 -41.38,20.78 -64.77,27.11 -23.38,7.22 -50.39,10.84 -80.97,10.84 -34.17,0 -64.76,-5.42 -93.55,-17.17z"/>
  <path class="fil2" d="M726.35 13073.38l0 -435.49c30.56,-17.16 64.75,-31.62 100.74,-42.46 34.19,-9.94 70.17,-15.36 104.34,-15.36 34.19,0 61.18,5.42 80.97,17.16 19.79,11.75 28.79,33.43 28.79,65.06l0 411.09 95.35 0 0 -416.51c0,-28.01 -7.19,-49.7 -21.59,-66.86 -14.39,-16.27 -34.17,-28.01 -57.57,-36.14 -25.19,-7.23 -53.98,-10.85 -84.55,-10.85 -48.59,0 -93.57,5.42 -134.95,17.17 -41.38,11.75 -79.15,28.01 -111.53,46.98l0 -56.01 -95.37 0 0 522.22 95.37 0z"/>
  <path class="fil2" d="M648.97 14106.96c55.78,0 102.55,-3.61 140.33,-9.93 37.78,-6.33 66.57,-15.36 89.97,-28.92 21.58,-12.65 35.98,-28.91 44.96,-48.79l253.7 -564.68 -95.37 0 -197.9 477.04 -205.1 -477.04 -93.57 0 219.5 468.91c7.21,14.46 14.4,28.92 19.79,42.47 5.4,13.55 9,27.1 9,38.85 0,11.74 -3.6,21.68 -12.6,31.62 -8.98,9.94 -30.59,17.17 -61.17,22.59 -32.38,6.32 -82.76,9.03 -151.13,9.03l0 38.85 39.59 0z"/>
  <path class="fil3" d="M1785.72 8890.79l0 -306.21 309.05 0 0 306.21 81.02 0 0 -632.11 -81.02 0 0 281.06 -309.05 0 0 -281.06 -79.51 0 0 632.11 79.51 0zm933.16 -40.46c30,-33.91 45,-77.65 45,-131.24l0 -41.55 -78 0 0 47.02c0,40.46 -7.51,69.99 -21.01,88.58 -13.51,18.59 -31.51,30.62 -52.51,36.09 -21,5.47 -42.01,7.66 -63.01,7.66 -33.01,0 -60.02,-5.47 -81.02,-17.5 -21,-12.03 -36,-31.71 -45.01,-60.15 -10.49,-28.43 -14.99,-67.8 -14.99,-118.11l0 -100.61 355.55 0 0 -60.15c0,-60.15 -6,-109.36 -19.5,-146.54 -13.51,-36.09 -34.51,-63.43 -66.01,-79.84 -31.51,-16.4 -73.51,-25.15 -127.52,-25.15 -45.01,0 -84.01,6.56 -117.02,18.59 -34.5,12.03 -60.02,36.09 -78.02,69.99 -18,33.9 -26.99,84.21 -26.99,150.92l0 168.42c0,64.52 8.99,114.83 26.99,149.82 16.51,36.09 42.01,60.15 75.01,73.27 33.01,14.22 72.03,20.78 118.53,20.78 82.52,0 138.02,-16.4 169.53,-50.3zm-310.55 -372.93c0,-50.3 4.5,-88.58 14.99,-115.92 10.51,-26.24 25.52,-44.84 48.01,-54.68 21.01,-9.84 48.01,-14.22 79.52,-14.22 40.51,0 70.51,7.66 90.02,21.88 19.49,15.31 31.49,36.09 37.5,63.43 4.5,27.34 7.51,60.14 7.51,98.42l0 49.21 -277.55 0 0 -48.12z"/>
  <path class="fil0" d="M2993.41 9098.58l0 -260.28c16.5,14.21 37.5,27.34 64.5,41.55 25.5,14.22 57.01,20.78 94.52,20.78 52.51,0 93.01,-9.84 123.03,-30.62 28.49,-20.78 49.5,-50.3 63,-90.77 12.01,-40.46 18,-89.67 18,-148.73l0 -121.39c0,-39.37 -3,-75.46 -7.5,-107.17 -6,-31.72 -16.51,-60.15 -30,-83.12 -15.01,-22.96 -34.51,-40.46 -60.01,-52.49 -25.5,-12.03 -58.51,-17.5 -99.02,-17.5 -40.51,0 -73.51,6.56 -100.51,19.69 -27.01,14.21 -49.51,28.43 -66.01,43.74l0 -53.59 -79.51 0 0 839.9 79.51 0zm64.5 -260.28c-25.5,-12.03 -48,-25.16 -64.5,-39.37l0 -446.2c16.5,-12.03 37.5,-25.15 63.01,-39.37 25.5,-13.12 55.5,-19.68 87.01,-19.68 37.51,0 66.01,7.65 85.51,21.87 19.5,15.31 31.51,38.28 39.01,69.99 6,31.72 9,73.27 9,123.58l0 123.58c0,51.4 -3,92.95 -10.51,125.76 -7.49,33.9 -19.49,57.96 -39,73.27 -19.51,16.41 -48,24.06 -84.01,24.06 -31.51,0 -60.02,-5.46 -85.52,-17.49zm459.07 209.97c46.52,0 85.52,-4.37 117.02,-12.03 31.51,-7.65 55.51,-18.59 75.02,-35 18,-15.31 30,-34.99 37.51,-59.05l211.52 -683.51 -79.51 0 -165.02 577.43 -171.04 -577.43 -78 0 183.03 567.59c5.99,17.49 12,34.99 16.5,51.4 4.5,16.4 7.51,32.81 7.51,47.02 0,14.22 -3.01,26.25 -10.51,38.28 -7.51,12.03 -25.5,20.78 -51.01,27.34 -27.01,7.65 -69.01,10.93 -126.03,10.93l0 47.03 33.01 0zm582.09 -157.48l172.54 -269.03 177.02 269.03 75.01 0 -208.53 -323.71 205.53 -308.4 -82.5 0 -160.54 250.44 -162.02 -250.44 -81.02 0 198.03 302.93 -211.53 329.18 78.01 0z"/>
  <path class="fil3" d="M4975.23 8873.29c31.51,-18.59 52.51,-44.84 66.01,-80.93 12,-36.08 18.01,-79.83 18.01,-132.32l0 -170.61c0,-53.58 -6.01,-97.33 -18.01,-133.42 -13.5,-34.99 -34.5,-61.24 -66.01,-79.83 -31.5,-18.59 -76.51,-27.34 -135.02,-27.34 -57.01,0 -100.51,8.75 -132.02,27.34 -31.5,18.59 -54.01,44.84 -66.02,80.93 -13.49,36.09 -19.49,79.83 -19.49,132.32l0 170.61c0,52.49 6,96.24 19.49,132.32 12.01,36.09 34.52,62.34 66.02,80.93 31.51,18.59 75.01,27.34 132.02,27.34 58.51,0 103.52,-8.75 135.02,-27.34zm-226.53 -40.46c-19.51,-15.31 -33.01,-37.18 -37.51,-66.71 -6.01,-29.53 -9,-63.43 -9,-103.89l0 -174.98c0,-40.47 2.99,-75.46 9,-104.99 4.5,-28.43 18,-50.31 37.51,-66.71 19.5,-15.31 49.51,-22.97 91.51,-22.97 42.01,0 73.52,7.66 93.01,22.97 19.51,16.4 33.01,38.28 39.02,66.71 4.5,29.53 7.5,64.52 7.5,104.99l0 174.98c0,40.46 -3,74.36 -7.5,103.89 -6.01,29.53 -19.51,51.4 -39.02,66.71 -19.49,16.4 -51,24.06 -93.01,24.06 -42,0 -72.01,-7.66 -91.51,-24.06zm528.08 57.96l2.99 -482.28 192.05 415.57 25.5 0 193.52 -417.76 3.01 484.47 69.01 0 -6.01 -632.11 -64.5 0 -208.53 462.6 -208.55 -462.6 -61.5 0 -7.5 632.11 70.51 0zm742.63 0l0 -632.11 -81.02 0 0 632.11 81.02 0zm0 -715.22l0 -100.61 -81.02 0 0 100.61 81.02 0zm532.58 695.53c30.01,-19.68 49.51,-45.93 58.51,-79.83 9,-33.9 13.5,-71.08 13.5,-113.73l0 -22.97 -75.01 0 0 24.06c0,41.56 -3,75.46 -9,101.71 -5.99,26.24 -18,45.93 -37.5,57.96 -19.51,12.03 -49.51,18.59 -88.51,18.59 -57.02,0 -94.52,-15.31 -112.52,-45.93 -19.51,-30.62 -28.51,-79.84 -28.51,-148.73l0 -164.05c0,-50.3 2.99,-90.77 10.5,-120.29 7.5,-29.53 21,-51.4 40.51,-65.62 19.5,-13.12 49.5,-19.69 88.51,-19.69 31.51,0 58.5,4.38 78.01,13.13 19.51,9.84 34.5,25.15 45.01,48.12 9,22.96 13.5,56.86 13.5,99.52l0 25.15 75.01 0 0 -25.15c0,-38.28 -4.5,-73.28 -14.99,-104.99 -10.51,-30.62 -30.02,-54.68 -60.02,-73.27 -31.5,-17.5 -76.51,-26.25 -136.52,-26.25 -55.51,0 -100.52,8.75 -132.02,25.15 -31.51,16.41 -54,43.75 -67.52,80.93 -13.5,38.28 -19.49,87.49 -19.49,149.83l0 148.73c0,45.93 4.5,87.49 14.99,124.67 9,37.18 28.51,66.71 60.02,88.58 31.5,22.97 79.51,33.9 144.02,33.9 63.02,0 109.52,-9.84 139.52,-29.53zm423.06 19.69l0 -587.27 198.04 0 0 -44.84 -480.08 0 0 44.84 204.04 0 0 587.27 78 0zm433.57 0c58.51,0 106.52,-5.47 144.03,-16.4 37.5,-10.94 66.01,-25.16 85.52,-43.75 19.49,-17.5 32.99,-37.18 40.5,-60.15 7.5,-21.87 10.5,-43.74 10.5,-66.71 0,-22.96 -3,-45.93 -10.5,-68.9 -7.51,-22.96 -19.5,-42.65 -39.01,-61.24 -19.5,-18.59 -48.01,-32.81 -84.01,-44.84 -36.01,-10.93 -84.02,-16.4 -142.53,-16.4 -22.5,0 -40.5,0 -51,0 -10.5,0 -16.51,0 -18,0l0 -253.72 -79.51 0 0 632.11 144.01 0zm-64.5 -339.02c13.5,0 28.5,0 43.5,0 15.01,0 22.51,0 24,0 58.51,0 103.52,7.66 132.03,21.87 28.51,15.31 46.5,33.9 57,56.87 9.01,22.97 13.51,48.12 13.51,73.27 0,26.25 -4.5,50.31 -15.01,72.18 -10.49,22.97 -30,40.46 -58.5,54.68 -28.51,14.22 -73.52,20.78 -132.03,20.78l-64.5 0 0 -299.65z"/>
  <path class="fil4" d="M21747.52 11697.95c-143.79,199.07 -287.62,396.35 -437.09,592 -149.22,196.74 -310.05,386.04 -483.97,563.49 -89.19,86.29 -174.24,177.66 -270.02,257.24 -93.73,81.88 -185.81,166.3 -286.46,240.07l-148.87 113.59c-50.23,37.05 -103.11,70.35 -154.58,105.7 -51.97,34.71 -103.47,70.2 -155.93,104.24l-161.61 95.32 -80.89 47.7 -40.47 23.85 -41.69 21.55 -167.96 84.28 -84.03 42.09c-28.19,13.65 -57.36,25.11 -86.05,37.74l-172.79 74.26c-57.11,26.18 -116.62,46.04 -175.5,67.6l-177.06 63.95c-119.45,38.17 -240.1,73.31 -361.25,106.26l-183.58 41.98c-61.28,13.69 -122.2,29.28 -184.36,38.28l-185.88 30.79c-31.05,4.63 -61.88,11.05 -93.1,14.29l-93.66 10.02 -187.33 19.9c-62.44,6.6 -125.3,7.48 -187.99,11 -62.73,2.44 -125.42,6.21 -188.18,7.45l-188.27 -2.22c-1004.68,-12.95 -1999.3,-296.73 -2864.59,-791.64 -434.24,-245.18 -835.45,-545.36 -1196.91,-884.2 -46.53,-40.96 -89.46,-85.69 -132.75,-130l-129.89 -132.57c-86.54,-88.3 -164.85,-184.43 -246.49,-276.83 -41.59,-45.54 -77.43,-96.13 -115.95,-144.21l-113.46 -145.95c-74.26,-97.96 -145.2,-197.62 -216.92,-297.18l27.48 -22.08c82.59,90.56 162.17,184.18 245.32,273.68l124.14 134.2c41.84,44.24 80.93,90.81 125.66,132.26l130.53 127.35c43.5,42.37 85.13,86.47 131.55,125.8l135.89 120.86c45.19,40.4 89.93,81.14 138.11,117.94 372.29,309.77 777.24,576.54 1203.58,798.76l160.23 82.51 164.36 73.91c55.07,23.88 108.72,50.94 164.89,72.21l167.53 65.62c223.03,88.19 452.58,158.29 683.82,219.6 463.7,118.85 940.69,183.16 1418.1,187.79l179 0.84c59.62,-1.66 119.17,-5.82 178.75,-8.54 59.52,-3.84 119.31,-3.73 178.65,-9.94l177.98 -18.17 89 -9c29.71,-2.93 58.95,-8.96 88.44,-13.26l176.74 -27.94c59.2,-7.62 117.2,-21.77 175.58,-34.01l174.98 -37.46c464.64,-109.75 913.98,-282.58 1337.1,-506.66l158.78 -84.32c51.61,-30.37 102.41,-62.23 153.74,-93.31 50.87,-31.71 103.23,-61.38 153,-94.86l147.89 -102.87c48.79,-35.07 100.82,-65.93 147.25,-104.21l142.8 -110.49c97.51,-71.23 184.86,-154.52 276.76,-232.97 180.87,-160.02 352.03,-331.79 514.77,-512.49 83.54,-88.08 164.57,-181.43 246.98,-271.85 82.9,-90.45 165.13,-181.39 248.88,-271.07l27.27 22.33z"/>
 </g>
</svg>
