<?xml version="1.0" encoding="UTF-8"?>
<!DOCTYPE svg PUBLIC "-//W3C//DTD SVG 1.1//EN" "http://www.w3.org/Graphics/SVG/1.1/DTD/svg11.dtd">
<!-- Creator: CorelDRAW 2020 (64-Bit) -->
<svg xmlns="http://www.w3.org/2000/svg" xml:space="preserve" width="100mm" height="100mm" version="1.1" style="shape-rendering:geometricPrecision; text-rendering:geometricPrecision; image-rendering:optimizeQuality; fill-rule:evenodd; clip-rule:evenodd"
viewBox="0 0 10000 10000"
 xmlns:xlink="http://www.w3.org/1999/xlink"
 xmlns:xodm="http://www.corel.com/coreldraw/odm/2003">
 <defs>
  <style type="text/css">
   <![CDATA[
    .fil1 {fill:#C9A592}
    .fil0 {fill:#C9A592;fill-rule:nonzero}
   ]]>
  </style>
 </defs>
 <g id="Слой_x0020_1">
  <metadata id="CorelCorpID_0Corel-Layer"/>
  <g id="tiktok-black-icon-seeklogo.com.svg">
   <g>
    <path class="fil0" d="M6421.27 4256.09c-180.65,0 -347.67,-60.01 -481.3,-160.84 -153.42,-115.69 -264.16,-285.81 -303.13,-481.3 -9.9,-48.25 -14.85,-98.36 -15.47,-149.7l-516.55 -0.01 0 1411.1 -0.62 772.67c0,206.62 -134.86,381.7 -321.07,443.56 -54.44,17.94 -112.59,26.6 -173.22,22.89 -77.95,-4.33 -150.33,-27.84 -214.04,-65.58 -134.86,-80.42 -225.8,-226.41 -228.28,-394.06 -3.71,-261.07 207.24,-474.49 468.31,-474.49 51.35,0 100.83,8.66 147.23,23.51l0 -385.41 0 -137.96c-48.87,-7.42 -98.36,-11.14 -149.09,-11.14 -285.81,0 -553.06,118.78 -744.21,332.83 -144.14,161.46 -230.75,368.08 -244.36,584.6 -17.32,283.95 86.6,554.29 288.28,753.49 29.7,29.08 60.63,56.3 93.41,81.66 172.61,133.01 384.18,205.39 606.88,205.39 50.11,0 100.22,-3.71 149.09,-11.14 207.86,-30.93 399.64,-126.2 551.2,-275.91 186.21,-183.73 288.91,-428.09 290.14,-687.92l-2.47 -1154.36c88.46,68.67 185.59,124.96 290.14,168.89 162.08,68.66 334.06,102.69 510.38,102.69l0 -374.89 0 -139.2c0.6,0.63 -1.25,0.63 -1.25,0.63l0 0z"/>
   </g>
  </g>
  <path class="fil1" d="M5039.71 2246.75l0.01 0c1527.9,0 2777.99,1250.09 2777.99,2777.99l0 11.93c0,1527.9 -1250.09,2777.99 -2777.99,2777.99l-0.01 0c-1527.9,0 -2777.99,-1250.09 -2777.99,-2777.99l0 -11.93c0,-1527.9 1250.09,-2777.99 2777.99,-2777.99zm-7.52 131.53l0 0c1451.58,0 2639.22,1187.64 2639.22,2639.22l0 11.32c0,1451.58 -1187.64,2639.23 -2639.22,2639.23l0 0c-1451.58,0 -2639.22,-1187.65 -2639.22,-2639.23l0 -11.32c0,-1451.58 1187.64,-2639.22 2639.22,-2639.22z"/>
 </g>
</svg>
